<?xml version="1.0" encoding="UTF-8" ?>
<!DOCTYPE svg PUBLIC "-//W3C//DTD SVG 1.1//EN" "http://www.w3.org/Graphics/SVG/1.1/DTD/svg11.dtd">
<svg width="610pt" height="578pt" viewBox="0 0 610 578" version="1.1" xmlns="http://www.w3.org/2000/svg">
<path fill="#ffffff" d=" M 0.00 0.00 L 303.44 0.00 C 300.17 4.91 296.53 9.62 293.96 14.97 C 286.93 29.05 283.17 44.55 281.05 60.08 C 279.96 68.35 278.70 76.64 278.97 85.00 C 278.93 105.17 279.19 125.35 278.85 145.53 C 264.38 150.48 251.19 159.88 242.57 172.61 C 227.69 166.26 213.10 159.25 198.33 152.67 C 189.35 148.24 179.81 144.94 171.20 139.81 C 118.17 100.84 65.19 61.81 12.13 22.87 C 8.30 19.93 4.60 16.65 0.00 14.93 L 0.00 0.00 Z" />
<path fill="#010101" d=" M 303.44 0.00 L 304.49 0.00 C 313.49 11.74 319.83 25.41 323.24 39.79 C 326.83 53.23 328.96 67.10 329.14 81.01 C 329.37 84.67 330.01 88.29 330.01 91.96 C 330.11 109.81 329.81 127.65 330.13 145.49 C 340.57 147.54 349.29 154.07 357.37 160.62 C 361.56 163.86 364.60 168.25 368.08 172.18 C 389.50 163.20 410.37 152.94 431.67 143.66 C 439.73 140.27 446.04 134.04 453.21 129.21 C 501.43 93.77 549.62 58.28 597.87 22.88 C 601.71 19.96 605.37 16.63 610.00 14.99 L 610.00 16.17 C 594.73 44.02 578.64 71.43 563.21 99.19 C 561.22 102.41 559.93 106.60 556.04 108.02 C 526.81 120.81 497.59 133.64 468.33 146.37 C 464.36 148.25 460.68 150.67 456.92 152.93 C 441.70 162.42 426.26 171.58 411.02 181.06 C 406.21 184.46 408.22 191.25 409.82 195.91 C 422.35 191.78 434.84 187.51 447.38 183.41 C 459.28 179.93 469.84 173.22 481.01 168.01 C 490.89 162.35 501.18 157.48 511.33 152.33 C 522.37 145.96 533.99 140.68 545.27 134.76 C 534.80 154.33 523.52 173.46 512.93 192.97 C 511.84 195.32 508.89 195.19 506.74 195.74 C 493.32 197.48 479.95 199.54 466.57 201.56 C 459.78 202.65 452.79 202.92 446.27 205.24 C 434.13 209.70 422.10 214.44 409.99 218.96 C 406.95 220.21 403.54 220.83 400.88 222.85 C 398.76 226.72 397.65 231.05 396.01 235.14 C 399.56 237.89 402.96 241.07 407.20 242.75 C 409.15 242.84 411.08 242.37 413.00 242.09 C 430.71 238.83 448.56 236.49 466.27 233.27 C 473.68 231.79 480.77 229.11 488.02 227.05 C 491.21 226.15 494.24 224.80 497.15 223.23 C 497.38 223.67 497.85 224.55 498.08 224.99 C 491.41 232.82 485.94 241.55 479.72 249.72 C 476.46 254.30 473.02 258.75 469.96 263.46 C 476.25 259.04 482.59 254.45 487.42 248.39 C 491.66 244.25 497.04 241.46 501.19 237.20 C 504.54 233.63 508.68 230.84 513.32 229.23 C 514.37 228.73 515.30 228.90 516.13 229.72 C 519.58 232.34 521.44 236.48 524.83 239.16 C 528.25 240.74 532.85 239.24 535.72 242.23 C 538.35 244.95 541.25 247.49 543.36 250.65 C 545.44 253.78 545.59 257.66 547.00 261.05 C 551.33 267.55 557.32 272.77 561.95 279.04 C 563.84 283.04 562.28 287.82 564.17 291.87 C 567.44 298.58 570.50 305.40 574.10 311.96 C 576.92 316.57 577.14 323.20 573.36 327.36 C 570.60 330.63 567.12 333.79 562.76 334.53 C 559.78 334.60 556.92 333.53 554.13 332.65 C 548.27 337.66 541.79 341.89 536.08 347.08 C 521.67 358.99 507.71 371.43 493.13 383.14 C 490.23 385.62 486.60 387.17 483.93 389.91 C 482.30 394.02 481.19 398.66 477.29 401.32 C 473.97 404.75 469.09 403.42 464.94 403.07 C 461.68 402.63 459.11 405.00 456.39 406.36 C 452.11 408.95 447.06 410.01 442.99 412.98 C 436.72 417.64 432.33 424.41 425.91 428.88 C 419.07 432.80 412.10 437.11 407.34 443.54 C 405.18 448.53 411.15 451.10 413.37 454.63 C 417.54 460.68 411.86 467.39 412.20 473.82 C 413.09 477.71 415.78 480.80 418.11 483.92 C 421.07 487.70 419.18 493.13 421.93 497.06 C 424.40 501.43 430.88 498.48 433.87 502.17 C 435.58 503.92 435.11 506.63 434.92 508.85 C 433.99 513.60 431.95 518.05 430.67 522.71 C 429.80 526.54 425.52 527.62 422.20 528.32 C 419.06 529.11 416.12 527.21 413.03 527.07 C 407.03 526.61 401.02 527.64 395.02 527.12 C 388.34 526.60 381.19 528.19 374.95 525.08 C 371.59 523.60 369.56 520.43 367.15 517.85 C 365.63 516.04 363.70 514.29 363.41 511.82 C 362.62 502.13 359.40 492.76 359.85 482.96 C 356.67 483.38 353.49 484.18 350.28 483.90 C 348.39 483.26 347.18 481.52 345.73 480.26 C 339.74 473.62 330.16 473.16 321.90 472.07 C 313.86 471.66 309.63 479.74 304.30 484.37 C 299.93 479.50 295.61 473.38 288.65 472.36 C 278.86 470.77 267.48 472.89 260.93 480.90 C 259.72 482.02 258.86 484.11 256.91 483.92 C 254.29 483.90 251.73 483.33 249.16 482.96 C 249.42 490.56 247.74 497.97 246.37 505.39 C 245.64 508.62 246.33 512.35 244.16 515.11 C 240.02 520.07 235.81 526.09 228.78 526.75 C 218.86 527.22 208.89 527.37 198.96 526.94 C 195.30 526.61 191.90 528.25 188.33 528.52 C 184.54 527.97 179.43 527.05 178.33 522.72 C 177.08 518.35 175.31 514.15 174.23 509.74 C 173.70 506.82 173.31 503.03 176.19 501.18 C 179.08 499.52 182.76 500.28 185.71 498.70 C 189.42 495.40 188.42 490.00 189.79 485.73 C 191.93 481.93 195.38 478.87 196.63 474.58 C 197.70 468.28 192.03 462.10 194.89 455.93 C 196.58 451.57 203.13 449.67 201.99 444.26 C 197.43 437.07 189.61 432.79 182.50 428.48 C 176.60 424.11 172.32 417.95 166.58 413.40 C 162.62 410.27 157.57 409.18 153.25 406.72 C 151.06 405.56 149.01 404.12 146.68 403.24 C 142.31 402.31 137.57 405.08 133.48 402.59 C 130.72 400.75 128.11 398.30 127.02 395.10 C 126.00 392.58 125.66 389.41 122.96 388.06 C 117.49 384.65 112.52 380.54 107.64 376.35 C 93.92 365.10 80.67 353.30 66.94 342.07 C 62.80 339.08 58.82 335.88 54.87 332.63 C 51.00 333.86 46.55 335.72 42.71 333.36 C 38.43 330.80 34.03 327.04 33.01 321.93 C 31.60 314.42 37.38 308.56 39.99 302.06 C 41.83 296.98 45.67 292.55 45.87 286.97 C 46.22 283.91 45.60 280.36 47.85 277.88 C 52.10 272.80 56.72 268.03 60.82 262.82 C 62.99 260.36 62.98 256.92 64.07 253.98 C 65.66 249.09 69.88 245.84 73.28 242.24 C 75.50 239.89 78.97 240.29 81.89 239.81 C 84.28 239.86 85.75 237.76 87.12 236.13 C 89.18 233.38 91.52 230.85 94.09 228.58 C 98.22 230.30 102.56 231.97 105.75 235.24 C 109.60 239.12 113.93 242.48 118.41 245.61 C 121.95 248.03 124.11 251.89 127.43 254.56 C 131.94 258.21 136.37 261.98 141.27 265.10 C 135.79 256.88 129.64 249.13 123.97 241.04 C 120.12 235.56 116.26 230.10 111.93 224.99 C 112.16 224.55 112.62 223.67 112.85 223.24 C 115.76 224.80 118.80 226.15 121.99 227.05 C 130.06 229.36 137.96 232.38 146.27 233.75 C 164.59 236.83 182.96 239.60 201.27 242.72 C 206.36 242.47 210.01 237.90 213.98 235.12 C 212.34 231.05 211.24 226.72 209.13 222.85 C 207.79 221.68 206.03 221.18 204.41 220.54 C 194.88 217.25 185.59 213.34 176.11 209.90 C 169.10 207.43 162.31 204.02 154.84 203.12 C 137.91 200.93 121.08 197.97 104.13 195.87 C 101.72 195.28 98.37 195.54 97.07 192.96 C 86.47 173.47 75.18 154.33 64.73 134.75 C 75.78 140.58 87.19 145.72 98.02 151.97 C 105.69 156.04 113.63 159.61 121.27 163.74 C 130.02 168.89 139.33 173.00 148.31 177.71 C 154.71 181.18 161.77 183.05 168.62 185.38 C 179.15 188.87 189.65 192.44 200.18 195.91 C 201.65 191.50 203.38 185.94 200.12 181.94 C 190.28 175.28 179.81 169.60 169.81 163.18 C 158.09 156.58 147.33 148.15 134.66 143.33 C 107.98 131.69 81.32 119.97 54.63 108.35 C 52.09 107.40 50.06 105.53 48.95 103.05 C 32.83 73.97 15.97 45.30 0.00 16.14 L 0.00 14.93 C 4.60 16.65 8.30 19.93 12.13 22.87 C 65.19 61.81 118.17 100.84 171.20 139.81 C 179.81 144.94 189.35 148.24 198.33 152.67 C 213.10 159.25 227.69 166.26 242.57 172.61 C 251.19 159.88 264.38 150.48 278.85 145.53 C 279.19 125.35 278.93 105.17 278.97 85.00 C 278.70 76.64 279.96 68.35 281.05 60.08 C 283.17 44.55 286.93 29.05 293.96 14.97 C 296.53 9.62 300.17 4.91 303.44 0.00 Z" />
<path fill="#ffffff" d=" M 304.49 0.00 L 610.00 0.00 L 610.00 14.99 C 605.37 16.63 601.71 19.96 597.87 22.88 C 549.62 58.28 501.43 93.77 453.21 129.21 C 446.04 134.04 439.73 140.27 431.67 143.66 C 410.37 152.94 389.50 163.20 368.08 172.18 C 364.60 168.25 361.56 163.86 357.37 160.62 C 349.29 154.07 340.57 147.54 330.13 145.49 C 329.81 127.65 330.11 109.81 330.01 91.96 C 330.01 88.29 329.37 84.67 329.14 81.01 C 328.96 67.10 326.83 53.23 323.24 39.79 C 319.83 25.41 313.49 11.74 304.49 0.00 Z" />
<path fill="#ffffff" d=" M 304.12 3.64 C 310.87 11.70 315.31 21.31 318.89 31.11 C 323.25 46.69 326.79 62.67 327.22 78.89 C 328.08 84.41 328.47 90.05 327.56 95.59 C 326.60 101.01 327.08 106.53 327.00 112.00 C 326.94 123.07 327.12 134.13 326.92 145.19 C 323.45 144.54 320.13 143.33 316.77 142.27 C 312.56 141.64 308.28 142.13 304.04 141.97 C 304.03 95.86 303.87 49.75 304.12 3.64 Z" />
<path fill="#ffffff" d=" M 0.00 16.14 C 15.97 45.30 32.83 73.97 48.95 103.05 C 50.06 105.53 52.09 107.40 54.63 108.35 C 81.32 119.97 107.98 131.69 134.66 143.33 C 147.33 148.15 158.09 156.58 169.81 163.18 C 179.81 169.60 190.28 175.28 200.12 181.94 C 203.38 185.94 201.65 191.50 200.18 195.91 C 189.65 192.44 179.15 188.87 168.62 185.38 C 161.77 183.05 154.71 181.18 148.31 177.71 C 139.33 173.00 130.02 168.89 121.27 163.74 C 113.63 159.61 105.69 156.04 98.02 151.97 C 87.19 145.72 75.78 140.58 64.73 134.75 C 75.18 154.33 86.47 173.47 97.07 192.96 C 98.37 195.54 101.72 195.28 104.13 195.87 C 121.08 197.97 137.91 200.93 154.84 203.12 C 162.31 204.02 169.10 207.43 176.11 209.90 C 185.59 213.34 194.88 217.25 204.41 220.54 C 206.03 221.18 207.79 221.68 209.13 222.85 C 211.24 226.72 212.34 231.05 213.98 235.12 C 210.01 237.90 206.36 242.47 201.27 242.72 C 182.96 239.60 164.59 236.83 146.27 233.75 C 137.96 232.38 130.06 229.36 121.99 227.05 C 118.80 226.15 115.76 224.80 112.85 223.24 C 112.62 223.67 112.16 224.55 111.93 224.99 C 116.26 230.10 120.12 235.56 123.97 241.04 C 129.64 249.13 135.79 256.88 141.27 265.10 C 136.37 261.98 131.94 258.21 127.43 254.56 C 124.11 251.89 121.95 248.03 118.41 245.61 C 113.93 242.48 109.60 239.12 105.75 235.24 C 102.56 231.97 98.22 230.30 94.09 228.58 C 91.52 230.85 89.18 233.38 87.12 236.13 C 85.75 237.76 84.28 239.86 81.89 239.81 C 78.97 240.29 75.50 239.89 73.28 242.24 C 69.88 245.84 65.66 249.09 64.07 253.98 C 62.98 256.92 62.99 260.36 60.82 262.82 C 56.72 268.03 52.10 272.80 47.85 277.88 C 45.60 280.36 46.22 283.91 45.87 286.97 C 45.67 292.55 41.83 296.98 39.99 302.06 C 37.38 308.56 31.60 314.42 33.01 321.93 C 34.03 327.04 38.43 330.80 42.71 333.36 C 46.55 335.72 51.00 333.86 54.87 332.63 C 58.82 335.88 62.80 339.08 66.94 342.07 C 80.67 353.30 93.92 365.10 107.64 376.35 C 112.52 380.54 117.49 384.65 122.96 388.06 C 125.66 389.41 126.00 392.58 127.02 395.10 C 128.11 398.30 130.72 400.75 133.48 402.59 C 137.57 405.08 142.31 402.31 146.68 403.24 C 149.01 404.12 151.06 405.56 153.25 406.72 C 157.57 409.18 162.62 410.27 166.58 413.40 C 172.32 417.95 176.60 424.11 182.50 428.48 C 189.61 432.79 197.43 437.07 201.99 444.26 C 203.13 449.67 196.58 451.57 194.89 455.93 C 192.03 462.10 197.70 468.28 196.63 474.58 C 195.38 478.87 191.93 481.93 189.79 485.73 C 188.42 490.00 189.42 495.40 185.71 498.70 C 182.76 500.28 179.08 499.52 176.19 501.18 C 173.31 503.03 173.70 506.82 174.23 509.74 C 175.31 514.15 177.08 518.35 178.33 522.72 C 179.43 527.05 184.54 527.97 188.33 528.52 C 191.90 528.25 195.30 526.61 198.96 526.94 C 208.89 527.37 218.86 527.22 228.78 526.75 C 235.81 526.09 240.02 520.07 244.16 515.11 C 246.33 512.35 245.64 508.62 246.37 505.39 C 247.74 497.97 249.42 490.56 249.16 482.96 C 251.73 483.33 254.29 483.90 256.91 483.92 C 258.86 484.11 259.72 482.02 260.93 480.90 C 267.48 472.89 278.86 470.77 288.65 472.36 C 295.61 473.38 299.93 479.50 304.30 484.37 C 309.63 479.74 313.86 471.66 321.90 472.07 C 330.16 473.16 339.74 473.62 345.73 480.26 C 347.18 481.52 348.39 483.26 350.28 483.90 C 353.49 484.18 356.67 483.38 359.85 482.96 C 359.40 492.76 362.62 502.13 363.41 511.82 C 363.70 514.29 365.63 516.04 367.15 517.85 C 369.56 520.43 371.59 523.60 374.95 525.08 C 381.19 528.19 388.34 526.60 395.02 527.12 C 401.02 527.64 407.03 526.61 413.03 527.07 C 416.12 527.21 419.06 529.11 422.20 528.32 C 425.52 527.62 429.80 526.54 430.67 522.71 C 431.95 518.05 433.99 513.60 434.92 508.85 C 435.11 506.63 435.58 503.92 433.87 502.17 C 430.88 498.48 424.40 501.43 421.93 497.06 C 419.18 493.13 421.07 487.70 418.11 483.92 C 415.78 480.80 413.09 477.71 412.20 473.82 C 411.86 467.39 417.54 460.68 413.37 454.63 C 411.15 451.10 405.18 448.53 407.34 443.54 C 412.10 437.11 419.07 432.80 425.91 428.88 C 432.33 424.41 436.72 417.64 442.99 412.98 C 447.06 410.01 452.11 408.95 456.39 406.36 C 459.11 405.00 461.68 402.63 464.94 403.07 C 469.09 403.42 473.97 404.75 477.29 401.32 C 481.19 398.66 482.30 394.02 483.93 389.91 C 486.60 387.17 490.23 385.62 493.13 383.14 C 507.71 371.43 521.67 358.99 536.08 347.08 C 541.79 341.89 548.27 337.66 554.13 332.65 C 556.92 333.53 559.78 334.60 562.76 334.53 C 567.12 333.79 570.60 330.63 573.36 327.36 C 577.14 323.20 576.92 316.57 574.10 311.96 C 570.50 305.40 567.44 298.58 564.17 291.87 C 562.28 287.82 563.84 283.04 561.95 279.04 C 557.32 272.77 551.33 267.55 547.00 261.05 C 545.59 257.66 545.44 253.78 543.36 250.65 C 541.25 247.49 538.35 244.95 535.72 242.23 C 532.85 239.24 528.25 240.74 524.83 239.16 C 521.44 236.48 519.58 232.34 516.13 229.72 C 515.30 228.90 514.37 228.73 513.32 229.23 C 508.68 230.84 504.54 233.63 501.19 237.20 C 497.04 241.46 491.66 244.25 487.42 248.39 C 482.59 254.45 476.25 259.04 469.96 263.46 C 473.02 258.75 476.46 254.30 479.72 249.72 C 485.94 241.55 491.41 232.82 498.08 224.99 C 497.85 224.55 497.38 223.67 497.15 223.23 C 494.24 224.80 491.21 226.15 488.02 227.05 C 480.77 229.11 473.68 231.79 466.27 233.27 C 448.56 236.49 430.71 238.83 413.00 242.09 C 411.08 242.37 409.15 242.84 407.20 242.75 C 402.96 241.07 399.56 237.89 396.01 235.14 C 397.65 231.05 398.76 226.72 400.88 222.85 C 403.54 220.83 406.95 220.21 409.99 218.96 C 422.10 214.44 434.13 209.70 446.27 205.24 C 452.79 202.92 459.78 202.65 466.57 201.56 C 479.95 199.54 493.32 197.48 506.74 195.74 C 508.89 195.19 511.84 195.32 512.93 192.97 C 523.52 173.46 534.80 154.33 545.27 134.76 C 533.99 140.68 522.37 145.96 511.33 152.33 C 501.18 157.48 490.89 162.35 481.01 168.01 C 469.84 173.22 459.28 179.93 447.38 183.41 C 434.84 187.51 422.35 191.78 409.82 195.91 C 408.22 191.25 406.21 184.46 411.02 181.06 C 426.26 171.58 441.70 162.42 456.92 152.93 C 460.68 150.67 464.36 148.25 468.33 146.37 C 497.59 133.64 526.81 120.81 556.04 108.02 C 559.93 106.60 561.22 102.41 563.21 99.19 C 578.64 71.43 594.73 44.02 610.00 16.17 L 610.00 578.00 L 308.26 578.00 C 312.98 576.89 317.78 576.14 322.48 574.96 C 320.84 572.15 319.14 569.25 316.66 567.10 C 312.09 566.52 307.61 568.15 303.04 567.90 C 299.49 567.79 295.99 566.68 292.43 567.14 C 290.48 569.39 285.87 571.89 287.57 575.31 C 291.87 576.60 296.39 576.97 300.77 578.00 L 0.00 578.00 L 0.00 16.14 Z" />
<path fill="#ffffff" d=" M 293.24 19.25 C 293.79 19.79 293.79 19.79 293.24 19.25 Z" />
<path fill="#fa0202" d=" M 5.10 20.98 C 9.16 23.08 12.68 26.00 16.39 28.63 C 66.86 65.83 117.38 102.96 167.89 140.09 C 175.49 144.94 184.08 147.89 192.16 151.80 C 208.35 159.40 224.85 166.34 240.89 174.25 C 238.39 181.70 233.50 188.28 232.34 196.20 C 231.46 202.49 229.10 208.87 230.78 215.25 C 231.50 219.68 233.60 224.79 230.83 228.91 C 227.19 234.10 223.70 240.17 224.27 246.72 C 225.99 250.07 231.13 251.64 230.74 256.02 C 230.45 260.89 230.62 265.81 229.70 270.63 C 229.27 273.09 229.00 275.67 229.84 278.08 C 231.18 282.38 237.34 283.32 237.83 288.06 C 238.40 294.13 238.92 300.21 239.15 306.31 C 233.24 304.59 227.04 305.26 220.98 305.10 C 212.61 304.24 205.83 309.96 198.09 311.95 C 191.73 307.36 186.00 301.98 179.81 297.18 C 176.69 294.72 173.59 292.20 171.02 289.16 C 180.52 288.96 189.91 291.87 199.40 290.48 C 207.68 289.67 215.98 289.11 224.27 288.32 C 226.22 288.10 228.11 287.51 229.96 286.84 C 228.31 280.15 227.51 272.94 224.13 266.87 C 213.74 262.94 202.45 262.13 191.74 259.29 C 183.90 256.92 175.88 259.45 167.99 260.03 C 160.47 260.65 153.04 261.90 145.54 262.66 C 141.52 263.50 139.85 258.78 137.66 256.34 C 131.41 246.73 123.85 238.01 118.03 228.13 C 123.89 229.09 129.43 231.32 135.12 232.95 C 143.45 235.80 152.26 236.61 160.88 238.11 C 171.80 239.74 182.67 241.61 193.57 243.37 C 197.19 243.90 200.85 245.09 204.53 244.52 C 208.27 242.87 211.61 240.35 214.66 237.66 C 216.31 236.56 215.49 234.44 215.14 232.89 C 214.10 229.41 212.86 225.96 211.18 222.73 C 210.22 220.64 207.82 220.00 205.88 219.17 C 191.70 214.20 177.83 208.41 163.72 203.28 C 158.91 201.53 153.77 201.07 148.74 200.32 C 134.14 198.44 119.63 195.88 105.02 194.03 C 102.58 193.53 99.38 193.54 98.13 190.95 C 91.00 178.35 83.87 165.75 76.85 153.09 C 74.44 148.81 71.74 144.67 70.00 140.05 C 83.26 145.09 95.19 152.99 108.03 158.96 C 117.90 163.56 127.15 169.35 137.02 173.98 C 145.24 177.83 153.04 182.74 161.86 185.18 C 174.96 189.10 187.71 194.15 200.85 197.90 C 203.74 193.17 204.73 187.25 203.12 181.91 C 202.23 178.50 198.02 178.28 195.52 176.48 C 182.77 168.52 169.94 160.67 157.06 152.93 C 152.73 150.18 148.39 147.40 143.68 145.35 C 115.08 132.97 86.64 120.23 57.99 107.98 C 55.39 106.81 52.57 105.55 51.06 102.98 C 38.34 80.68 25.72 58.32 13.02 36.01 C 10.43 30.97 7.19 26.27 5.10 20.98 Z" />
<path fill="#ffffff" d=" M 288.13 33.12 C 289.74 28.95 290.33 24.27 293.08 20.62 C 292.22 26.15 289.89 31.32 288.75 36.79 C 286.14 44.90 284.81 53.32 283.65 61.73 C 282.01 70.88 283.94 80.25 282.44 89.41 C 281.65 94.57 282.07 99.80 282.00 105.00 C 281.95 117.66 282.07 130.32 281.97 142.98 C 282.15 144.46 281.01 145.42 280.15 146.42 C 279.78 125.62 280.15 104.81 279.97 84.00 C 279.74 78.01 281.09 72.12 281.24 66.14 C 282.79 55.01 284.19 43.72 288.13 33.12 Z" />
<path fill="#fa0202" d=" M 595.38 27.34 C 598.49 25.13 601.54 22.81 604.87 20.93 C 597.52 36.44 588.10 50.89 579.95 65.99 C 574.04 76.98 567.30 87.51 561.60 98.62 C 559.87 101.71 558.09 105.15 554.73 106.73 C 532.98 116.35 511.08 125.66 489.35 135.35 C 477.12 141.00 464.16 145.31 452.92 152.90 C 443.16 158.79 433.53 164.92 423.68 170.67 C 418.48 173.94 413.45 177.62 407.59 179.66 C 405.32 185.59 405.57 192.52 409.17 197.88 C 424.27 193.34 439.15 188.05 454.13 183.10 C 463.80 179.10 472.92 173.89 482.31 169.28 C 490.87 164.30 499.86 160.17 508.67 155.68 C 519.05 150.35 529.05 144.09 540.03 140.04 C 538.17 144.61 535.46 148.76 533.09 153.07 C 526.18 165.51 519.32 177.98 512.29 190.35 C 510.74 193.40 507.06 193.77 504.06 194.19 C 492.69 195.61 481.38 197.45 470.05 199.14 C 461.10 200.49 451.83 200.80 443.36 204.29 C 430.59 209.31 417.78 214.21 404.88 218.87 C 402.48 219.90 399.31 220.56 398.43 223.39 C 396.85 227.66 394.39 231.94 394.40 236.57 C 396.98 239.38 400.31 241.37 403.47 243.48 C 406.54 245.72 410.47 244.35 413.89 243.94 C 431.55 240.54 449.41 238.27 467.11 235.11 C 475.56 233.37 483.45 229.52 491.98 228.11 C 486.85 237.29 479.68 245.13 473.96 253.94 C 471.64 256.82 469.98 260.72 466.73 262.55 C 458.45 262.45 450.28 260.57 442.02 259.97 C 434.66 259.49 427.23 257.08 419.89 258.93 C 409.02 261.58 397.88 263.11 387.13 266.19 C 384.66 266.80 384.51 269.79 383.79 271.79 C 382.66 276.98 380.58 282.00 380.30 287.36 C 390.30 289.27 400.52 289.30 410.60 290.48 C 419.73 291.81 428.77 289.12 437.91 289.17 C 432.42 295.32 425.48 299.90 419.27 305.27 C 416.52 307.38 414.16 310.08 411.02 311.62 C 404.20 309.98 398.34 304.88 391.05 305.16 C 385.72 305.27 380.37 304.59 375.06 305.13 C 372.83 305.26 371.54 307.31 370.01 308.65 C 370.78 302.07 370.87 295.41 371.77 288.84 C 372.18 282.95 380.54 281.29 380.06 275.01 C 379.22 268.63 380.00 262.13 378.48 255.84 C 378.21 250.91 385.86 249.30 384.82 244.16 C 384.25 238.71 381.34 233.97 378.95 229.17 C 376.72 224.86 378.70 220.05 379.46 215.63 C 380.95 209.10 379.15 202.50 378.11 196.05 C 376.94 188.09 372.02 181.49 369.28 174.07 C 390.90 164.03 412.64 154.20 434.37 144.38 C 440.38 141.75 445.52 137.64 450.73 133.73 C 498.96 98.29 547.15 62.77 595.38 27.34 Z" />
<path fill="#ffffff" d=" M 354.25 217.24 C 364.30 220.20 374.78 225.64 379.51 235.48 C 381.23 238.77 382.19 242.37 383.11 245.95 C 379.15 248.46 376.95 252.60 374.17 256.17 C 362.29 264.50 347.98 268.27 334.21 272.24 C 330.65 273.34 326.88 273.80 323.51 275.46 C 331.90 275.23 340.18 273.60 348.21 271.24 C 354.27 269.54 360.38 267.89 366.02 265.04 C 369.88 263.23 373.26 260.61 377.05 258.68 C 377.15 262.41 375.64 266.24 377.12 269.85 C 378.31 272.84 378.28 276.59 376.17 279.13 C 370.89 282.81 364.97 285.45 359.67 289.09 C 363.22 288.01 366.56 286.34 370.05 285.05 C 368.79 293.31 367.84 301.65 368.01 310.02 C 368.07 312.33 367.26 314.95 364.99 315.95 C 360.48 318.44 356.03 321.04 351.50 323.49 C 347.93 325.45 343.93 326.63 340.66 329.11 C 345.40 328.50 349.47 325.70 354.13 324.74 C 352.19 330.72 349.81 336.55 347.29 342.32 C 346.59 344.15 344.92 345.29 343.45 346.48 C 338.58 350.23 334.91 355.29 330.00 359.00 C 326.79 361.42 324.20 364.54 321.11 367.10 C 315.00 371.72 310.40 378.05 303.83 382.12 C 304.74 377.20 306.33 372.45 307.67 367.64 C 311.48 354.67 314.72 341.55 318.56 328.59 C 320.92 319.92 323.74 311.38 325.65 302.60 C 326.29 300.82 326.52 298.27 328.66 297.68 C 333.72 295.38 339.56 295.04 344.28 291.95 C 333.59 293.83 323.24 297.35 312.59 299.47 C 310.89 299.83 309.17 300.20 307.58 300.90 C 312.82 301.43 317.95 299.97 323.06 299.03 C 316.03 325.48 308.42 351.76 301.55 378.25 C 294.31 374.51 289.89 367.34 283.56 362.45 C 279.75 359.63 276.76 355.89 273.01 353.00 C 269.34 350.03 265.91 346.74 262.84 343.16 C 258.78 336.92 258.31 329.01 254.22 322.80 C 250.52 319.68 245.96 317.74 242.14 314.77 C 241.66 304.82 240.64 294.91 239.88 284.99 C 243.22 286.60 246.43 288.76 250.21 289.20 C 244.31 285.25 236.97 283.19 232.22 277.65 C 231.16 273.19 233.09 268.74 232.69 264.26 C 232.48 262.17 232.69 260.07 233.00 258.00 C 240.19 261.28 247.24 264.95 254.86 267.17 C 267.18 270.77 279.77 273.45 292.42 275.62 C 296.05 276.34 299.69 277.28 303.42 276.92 C 299.26 275.05 294.65 274.76 290.25 273.76 C 276.76 271.28 263.58 267.40 250.45 263.49 C 245.32 261.49 239.66 260.22 235.29 256.72 C 232.65 252.82 230.56 248.35 226.29 245.89 C 227.11 238.41 230.86 231.44 236.77 226.77 C 241.97 222.42 248.10 218.69 254.97 217.96 C 256.64 217.73 257.67 219.28 258.78 220.24 C 265.46 227.59 274.49 232.12 282.33 238.03 C 274.70 234.62 267.65 229.97 260.87 225.11 C 258.14 223.25 256.13 218.85 252.23 220.12 C 241.98 223.52 233.52 231.99 230.11 242.24 C 228.93 245.32 232.03 247.25 233.62 249.38 C 236.02 252.23 237.37 256.61 241.41 257.58 C 241.68 257.32 242.21 256.80 242.48 256.55 C 244.85 259.92 248.70 261.65 252.49 262.94 C 248.75 257.83 243.29 253.44 242.00 246.97 C 242.63 241.75 244.46 236.74 246.12 231.78 C 257.67 232.89 264.65 243.41 274.06 248.92 C 280.01 252.03 286.05 255.93 292.97 256.05 C 295.37 256.32 296.37 253.72 297.68 252.20 C 298.44 252.98 299.25 253.74 300.09 254.45 C 297.46 255.22 294.93 256.29 292.42 257.38 C 291.75 259.93 291.28 262.60 289.94 264.90 C 287.43 266.69 284.65 268.16 282.58 270.52 C 287.61 271.25 292.47 273.15 297.61 273.02 C 299.36 269.38 300.87 265.51 303.49 262.37 C 304.04 262.22 305.16 261.91 305.72 261.76 C 307.74 265.62 309.83 269.44 312.25 273.07 C 317.11 273.24 321.63 271.21 326.37 270.52 C 324.94 267.84 321.95 266.77 319.41 265.47 C 318.48 262.83 317.54 260.19 316.58 257.57 C 313.23 256.78 311.29 253.96 310.86 250.67 C 312.09 252.38 313.18 254.20 314.25 256.02 C 325.01 256.25 334.23 249.58 342.56 243.54 C 348.63 238.36 355.04 231.79 363.62 231.91 C 364.46 237.25 367.34 242.31 366.91 247.80 C 364.89 253.65 360.52 258.27 356.57 262.89 C 359.32 261.94 362.02 260.87 364.69 259.72 C 365.76 257.35 366.81 254.98 367.98 252.67 C 367.76 254.60 367.41 256.51 367.15 258.44 C 370.73 256.68 373.09 253.39 375.15 250.10 C 376.63 247.54 379.89 245.47 379.01 242.11 C 376.80 231.03 366.81 223.70 356.74 220.10 C 354.86 219.49 353.02 220.39 351.82 221.83 C 347.01 227.01 340.85 230.61 334.74 234.04 C 340.65 227.77 349.82 225.04 354.25 217.24 Z" />
<path fill="#fdfd07" d=" M 88.88 237.69 C 90.39 235.09 92.35 232.77 94.76 230.95 C 98.60 233.11 102.83 234.80 105.78 238.22 C 109.98 242.79 115.55 245.74 120.06 249.92 C 124.02 255.33 129.66 259.03 134.79 263.22 C 146.65 271.92 157.59 281.78 169.12 290.90 C 179.01 299.70 189.68 307.59 199.52 316.45 C 201.33 318.06 200.88 320.87 202.27 322.76 C 205.28 326.44 210.03 328.37 212.63 332.43 C 214.43 338.50 212.51 344.81 213.01 351.00 C 213.40 357.49 213.36 364.36 209.36 369.85 C 211.60 372.20 213.88 374.54 216.43 376.57 C 231.80 389.17 246.95 402.02 262.00 414.99 C 268.74 420.22 274.69 426.39 281.63 431.36 C 281.68 431.87 281.79 432.89 281.85 433.40 C 282.10 436.29 281.01 439.08 280.53 441.91 C 277.29 441.91 274.04 441.97 270.83 441.48 C 265.79 437.70 259.79 434.91 253.34 435.41 C 249.21 436.14 245.65 438.97 243.45 442.46 C 241.61 447.07 241.93 452.17 241.94 457.04 C 241.92 462.97 244.99 468.30 245.79 474.10 C 246.58 480.49 247.87 487.02 246.47 493.43 C 245.42 498.36 244.37 503.31 242.67 508.07 C 238.77 508.69 236.74 504.84 235.21 501.92 C 236.74 492.73 238.55 483.41 237.84 474.05 C 236.73 465.40 237.03 456.40 233.81 448.16 C 230.17 440.92 224.58 434.26 217.01 430.99 C 206.54 426.05 194.73 425.65 183.42 424.64 C 179.82 421.92 177.12 418.23 173.73 415.27 C 166.08 408.67 157.31 403.02 147.42 400.55 C 143.31 399.53 139.12 402.85 135.11 400.97 C 131.22 399.04 128.70 395.19 127.96 390.98 C 127.31 386.71 122.31 386.00 119.98 382.96 C 120.78 382.00 121.58 381.04 122.37 380.08 C 117.86 374.69 111.81 371.01 106.61 366.38 C 91.69 353.70 76.29 341.57 61.68 328.52 C 60.24 329.52 58.96 330.72 57.84 332.07 C 55.40 329.59 53.44 326.56 50.27 324.93 C 48.74 327.02 47.23 329.13 45.77 331.27 C 45.27 331.32 44.26 331.41 43.76 331.46 C 40.47 329.46 37.41 326.67 35.64 323.21 C 35.73 320.63 35.85 318.05 35.81 315.47 C 37.98 310.20 41.24 305.48 43.23 300.14 C 44.68 296.51 47.07 293.32 48.34 289.62 C 48.58 286.86 47.62 284.06 48.29 281.34 C 50.00 277.89 53.19 275.51 55.47 272.46 C 60.03 267.31 64.35 261.96 68.44 256.42 C 72.36 251.82 76.67 247.51 81.34 243.66 C 81.51 244.71 81.66 245.77 81.79 246.83 C 80.01 251.05 80.30 255.53 81.26 259.92 C 86.06 258.93 92.02 259.70 95.48 255.52 C 97.51 252.95 100.27 251.17 103.11 249.63 C 103.38 245.37 99.40 242.92 96.73 240.26 C 94.67 238.16 91.60 238.08 88.88 237.69 Z" />
<path fill="#fdfd07" d=" M 504.23 237.23 C 506.96 234.28 510.84 232.95 514.22 230.96 C 516.36 232.75 518.90 234.55 519.39 237.50 C 513.69 237.91 509.64 242.24 506.36 246.47 C 506.16 247.51 506.00 248.56 505.89 249.62 C 508.74 251.15 511.49 252.94 513.53 255.51 C 516.99 259.69 522.92 258.99 527.74 259.94 C 528.01 256.36 529.45 252.61 527.96 249.13 C 526.40 245.37 522.42 243.40 520.79 239.67 C 528.62 242.30 533.50 249.28 539.20 254.79 C 545.00 262.28 550.88 269.72 557.30 276.70 C 558.58 278.13 559.95 279.55 560.71 281.36 C 561.71 284.67 559.52 288.38 561.41 291.51 C 565.40 298.73 568.31 306.46 572.44 313.62 C 574.70 317.03 574.89 321.98 572.21 325.22 C 570.68 327.09 568.86 328.68 567.19 330.42 C 565.88 330.50 564.57 330.59 563.28 330.67 C 561.69 328.82 560.16 326.93 558.67 325.00 C 555.73 326.41 553.81 329.06 551.99 331.64 C 550.34 330.72 548.43 328.30 546.48 329.37 C 531.13 342.75 515.21 355.50 499.66 368.66 C 495.34 372.38 490.35 375.38 486.84 379.96 C 487.44 381.28 488.08 382.61 488.72 383.93 C 486.50 385.25 484.08 386.36 482.25 388.22 C 480.40 390.99 480.65 394.79 478.31 397.30 C 476.57 399.27 474.47 401.21 471.76 401.59 C 468.08 401.69 464.46 399.50 460.79 400.74 C 451.22 403.35 442.72 408.83 435.27 415.27 C 431.89 418.23 429.19 421.94 425.58 424.63 C 414.26 425.61 402.45 426.07 391.99 431.00 C 384.43 434.28 378.81 440.91 375.20 448.15 C 372.50 455.16 372.21 462.77 371.58 470.17 C 369.96 480.78 372.05 491.46 373.78 501.91 C 372.27 504.83 370.25 508.74 366.33 508.05 C 364.60 503.31 363.60 498.36 362.54 493.44 C 361.20 487.35 362.31 481.12 363.08 475.03 C 363.87 468.23 367.59 461.99 367.11 455.01 C 366.94 449.82 367.57 443.51 363.34 439.67 C 360.22 436.28 355.41 434.43 350.87 435.72 C 345.81 435.96 341.85 439.21 337.71 441.70 C 335.18 443.38 332.07 443.09 329.20 443.01 C 328.14 439.45 326.68 435.89 326.65 432.14 C 326.76 431.88 326.97 431.37 327.08 431.12 C 333.57 427.48 338.42 421.75 344.26 417.27 C 360.28 403.60 376.26 389.90 392.56 376.56 C 395.11 374.52 397.39 372.19 399.65 369.84 C 397.92 366.80 396.09 363.60 396.00 360.01 C 395.74 354.03 396.31 348.04 395.79 342.06 C 395.49 338.85 395.38 335.54 396.38 332.43 C 398.86 328.58 403.23 326.61 406.28 323.29 C 408.34 321.28 407.47 317.65 410.00 315.97 C 426.01 302.30 442.38 289.05 458.54 275.56 C 466.70 268.64 475.43 262.46 483.68 255.66 C 486.61 253.26 488.43 249.75 491.58 247.60 C 496.07 244.49 500.43 241.17 504.23 237.23 Z" />
<path fill="#ffffff" d=" M 333.25 234.25 C 333.79 234.80 333.79 234.80 333.25 234.25 Z" />
<path fill="#ffffff" d=" M 331.25 235.25 C 331.79 235.79 331.79 235.79 331.25 235.25 Z" />
<path fill="#ffffff" d=" M 329.25 236.25 C 329.79 236.80 329.79 236.80 329.25 236.25 Z" />
<path fill="#ffffff" d=" M 327.26 237.25 C 327.80 237.79 327.80 237.79 327.26 237.25 Z" />
<path fill="#ffffff" d=" M 283.25 238.25 C 283.79 238.79 283.79 238.79 283.25 238.25 Z" />
<path fill="#ffffff" d=" M 325.26 238.25 C 325.79 238.79 325.79 238.79 325.26 238.25 Z" />
<path fill="#ffffff" d=" M 520.28 238.27 C 520.81 238.81 520.81 238.81 520.28 238.27 Z" />
<path fill="#bfc0bf" d=" M 81.24 243.05 C 83.73 241.75 86.12 240.30 88.53 238.87 C 87.24 242.23 84.85 244.98 81.79 246.83 C 81.66 245.77 81.51 244.71 81.34 243.66 L 81.24 243.05 Z" />
<path fill="#ffffff" d=" M 285.25 239.25 C 285.79 239.79 285.79 239.79 285.25 239.25 Z" />
<path fill="#ffffff" d=" M 323.26 239.25 C 323.80 239.79 323.80 239.79 323.26 239.25 Z" />
<path fill="#ffffff" d=" M 92.25 247.25 C 92.80 247.79 92.80 247.79 92.25 247.25 Z" />
<path fill="#ffffff" d=" M 516.25 247.25 C 516.80 247.79 516.80 247.79 516.25 247.25 Z" />
<path fill="#ffffff" d=" M 301.25 251.25 C 301.79 251.79 301.79 251.79 301.25 251.25 Z" />
<path fill="#ffffff" d=" M 308.25 252.25 C 308.79 252.79 308.79 252.79 308.25 252.25 Z" />
<path fill="#010101" d=" M 94.40 261.39 C 98.32 258.88 101.63 255.57 105.38 252.82 C 106.19 255.38 106.51 258.42 108.76 260.21 C 128.66 276.33 148.18 292.93 168.56 308.44 C 171.44 310.53 173.68 313.41 176.65 315.37 C 178.24 316.47 179.83 314.69 181.34 314.26 C 179.85 317.91 177.59 321.13 174.85 323.94 C 162.55 336.73 151.80 350.86 140.68 364.67 C 136.97 369.39 132.36 373.66 130.69 379.65 C 132.51 380.65 134.32 381.65 136.12 382.68 C 133.00 385.72 127.76 382.11 127.78 378.24 C 129.79 376.12 131.44 373.69 132.91 371.18 C 112.23 353.14 90.65 336.13 70.20 317.84 C 66.61 315.45 63.26 312.73 59.82 310.15 C 58.12 308.52 55.78 309.64 53.79 309.86 C 58.89 300.80 65.41 292.70 71.00 283.95 C 69.48 283.23 67.95 282.55 66.40 281.91 C 64.48 279.03 62.10 276.53 59.80 273.97 C 63.04 270.48 66.26 266.98 69.36 263.37 C 70.43 261.95 71.97 261.08 73.71 260.75 C 76.55 264.14 79.83 267.25 83.82 269.26 C 87.14 266.37 90.71 263.78 94.40 261.39 Z" />
<path fill="#ffffff" d=" M 241.25 253.26 C 241.79 253.79 241.79 253.79 241.25 253.26 Z" />
<path fill="#010101" d=" M 503.61 252.81 C 507.36 255.56 510.68 258.87 514.61 261.38 C 518.29 263.79 521.86 266.37 525.19 269.26 C 529.17 267.26 532.42 264.13 535.28 260.76 C 538.11 261.08 539.77 263.53 541.52 265.49 C 543.94 268.42 546.65 271.11 549.18 273.95 C 547.72 275.71 546.24 277.44 544.69 279.11 C 542.83 281.19 540.49 282.73 538.15 284.21 C 540.90 288.61 543.91 292.82 547.04 296.96 C 549.75 301.15 552.40 305.38 555.28 309.45 C 553.08 309.50 550.83 309.47 548.73 310.22 C 544.15 314.56 538.43 317.46 534.06 322.04 C 515.02 338.76 495.19 354.55 476.08 371.19 C 477.39 374.47 481.64 376.82 480.84 380.63 C 479.06 383.04 475.44 385.25 472.87 382.68 C 474.68 381.65 476.50 380.65 478.32 379.65 C 477.25 376.90 476.14 374.08 474.21 371.80 C 465.82 361.83 457.96 351.42 449.57 341.44 C 443.74 333.69 436.62 327.06 430.29 319.73 C 429.29 317.97 428.54 316.09 427.72 314.25 C 429.55 315.24 431.82 316.60 433.51 314.57 C 440.18 308.12 447.93 302.97 455.00 296.99 C 470.39 285.12 485.02 272.31 500.24 260.23 C 502.50 258.43 502.78 255.37 503.61 252.81 Z" />
<path fill="#ffffff" d=" M 309.28 254.09 C 312.27 252.55 309.44 257.40 309.28 254.09 Z" />
<path fill="#ffffff" d=" M 141.80 265.22 C 155.22 263.12 168.81 262.13 182.27 260.25 C 185.76 259.64 189.21 260.66 192.59 261.41 C 202.61 263.90 212.89 265.29 222.83 268.13 C 225.07 273.88 226.17 279.97 227.78 285.91 C 220.22 286.86 212.61 287.20 205.03 287.96 C 199.69 287.87 194.45 289.69 189.11 288.86 C 181.94 287.75 174.65 287.47 167.46 286.59 C 163.27 283.85 159.74 280.26 155.81 277.18 C 151.26 273.05 145.93 269.82 141.80 265.22 Z" />
<path fill="#ffffff" d=" M 417.42 261.41 C 421.06 260.54 424.83 259.57 428.59 260.35 C 441.43 262.19 454.43 262.99 467.21 265.18 C 463.11 269.83 457.73 273.03 453.19 277.18 C 449.26 280.25 445.74 283.86 441.54 286.58 C 433.38 287.50 425.17 288.42 416.99 289.07 C 405.43 287.70 393.78 287.29 382.22 285.89 C 383.82 279.96 384.93 273.88 387.17 268.14 C 397.10 265.27 407.39 263.92 417.42 261.41 Z" />
<path fill="#ffffff" d=" M 74.21 276.01 C 75.74 275.17 76.30 277.63 74.80 278.00 C 73.26 278.83 72.70 276.37 74.21 276.01 Z" />
<path fill="#ffffff" d=" M 533.45 276.19 C 534.37 275.22 536.30 276.65 535.55 277.80 C 534.61 278.77 532.68 277.34 533.45 276.19 Z" />
<path fill="#ffffff" d=" M 538.15 284.21 C 540.49 282.73 542.83 281.19 544.69 279.11 C 545.05 280.95 545.44 282.78 545.87 284.61 C 545.40 283.82 543.26 282.12 542.95 283.80 C 543.37 285.03 544.77 285.42 545.78 286.06 C 546.08 286.36 546.67 286.95 546.96 287.24 C 548.03 288.64 549.24 289.94 550.66 291.00 C 551.75 291.97 553.44 293.04 553.12 294.75 C 552.04 296.77 554.37 298.09 555.50 299.42 L 555.95 299.99 C 556.94 301.53 558.20 302.87 559.59 304.07 L 560.07 304.56 C 560.72 305.71 561.35 306.89 561.98 308.07 C 560.88 310.02 559.79 311.97 558.75 313.95 C 555.88 311.64 552.49 309.99 548.73 310.22 C 550.83 309.47 553.08 309.50 555.28 309.45 C 552.40 305.38 549.75 301.15 547.04 296.96 C 543.91 292.82 540.90 288.61 538.15 284.21 Z" />
<path fill="#ffffff" d=" M 66.40 281.91 C 67.95 282.55 69.48 283.23 71.00 283.95 C 65.41 292.70 58.89 300.80 53.79 309.86 C 52.92 311.48 51.67 312.84 50.37 314.12 C 49.27 312.09 48.14 310.07 47.01 308.06 C 47.64 306.88 48.27 305.70 48.94 304.55 L 49.41 304.07 C 50.80 302.87 52.05 301.53 53.05 299.99 L 53.49 299.41 C 54.64 298.08 56.89 296.79 55.91 294.74 C 55.69 293.11 57.45 292.10 58.40 291.05 C 59.75 289.91 60.97 288.63 62.11 287.29 C 62.40 287.01 62.98 286.43 63.27 286.15 C 64.37 285.23 65.54 284.25 65.99 282.83 L 66.40 281.91 Z" />
<path fill="#010101" d=" M 63.27 286.15 C 62.28 284.67 64.33 282.00 65.99 282.83 C 65.54 284.25 64.37 285.23 63.27 286.15 Z" />
<path fill="#010101" d=" M 542.95 283.80 C 543.26 282.12 545.40 283.82 545.87 284.61 C 545.84 284.98 545.80 285.70 545.78 286.06 C 544.77 285.42 543.37 285.03 542.95 283.80 Z" />
<path fill="#010101" d=" M 58.40 291.05 C 57.15 289.12 60.16 286.10 62.11 287.29 C 60.97 288.63 59.75 289.91 58.40 291.05 Z" />
<path fill="#010101" d=" M 546.96 287.24 C 548.88 286.14 551.82 289.09 550.66 291.00 C 549.24 289.94 548.03 288.64 546.96 287.24 Z" />
<path fill="#010101" d=" M 55.91 294.74 C 56.89 296.79 54.64 298.08 53.49 299.41 C 52.50 297.68 54.16 295.25 55.91 294.74 Z" />
<path fill="#010101" d=" M 555.50 299.42 C 554.37 298.09 552.04 296.77 553.12 294.75 C 554.83 295.29 556.49 297.70 555.50 299.42 Z" />
<path fill="#010101" d=" M 49.41 304.07 C 48.27 302.17 51.05 299.15 53.05 299.99 C 52.05 301.53 50.80 302.87 49.41 304.07 Z" />
<path fill="#010101" d=" M 555.95 299.99 C 557.95 299.16 560.72 302.17 559.59 304.07 C 558.20 302.87 556.94 301.53 555.95 299.99 Z" />
<path fill="#010101" d=" M 306.25 301.26 C 306.79 301.80 306.79 301.80 306.25 301.26 Z" />
<path fill="#010101" d=" M 44.89 310.71 C 45.59 308.28 46.81 306.01 48.94 304.55 C 48.27 305.70 47.64 306.88 47.01 308.06 C 48.14 310.07 49.27 312.09 50.37 314.12 C 48.54 312.99 46.72 311.84 44.89 310.71 Z" />
<path fill="#010101" d=" M 560.07 304.56 C 562.21 306.01 563.46 308.27 564.12 310.74 C 562.33 311.81 560.55 312.91 558.75 313.95 C 559.79 311.97 560.88 310.02 561.98 308.07 C 561.35 306.89 560.72 305.71 560.07 304.56 Z" />
<path fill="#ffffff" d=" M 212.96 307.94 C 216.12 306.55 219.65 306.99 223.01 306.92 C 227.23 307.05 231.48 306.64 235.68 307.21 C 237.54 308.50 238.38 310.70 239.23 312.71 C 240.68 316.75 243.26 320.23 245.14 324.06 C 244.05 325.90 243.17 328.24 240.89 328.85 C 237.23 330.15 233.67 331.75 229.93 332.82 C 226.13 332.08 223.91 326.04 219.57 328.56 C 216.74 330.35 213.09 329.40 210.72 327.27 C 208.39 325.30 205.72 323.65 203.83 321.21 C 202.91 318.39 202.26 315.43 200.18 313.17 C 204.56 311.71 208.67 309.61 212.96 307.94 Z" />
<path fill="#ffffff" d=" M 374.14 307.03 C 379.43 306.93 384.73 306.94 390.02 306.92 C 397.26 306.40 403.17 311.36 409.89 313.15 C 406.76 314.81 405.95 318.06 405.19 321.22 C 402.25 324.29 398.90 327.33 395.03 329.11 C 391.94 330.72 389.28 327.61 386.22 327.98 C 383.93 329.35 382.04 331.27 379.88 332.82 C 376.06 331.40 372.18 330.13 368.42 328.56 C 366.53 327.78 365.88 325.66 364.87 324.08 C 368.21 318.53 370.29 312.25 374.14 307.03 Z" />
<path fill="#bfc0bf" d=" M 35.33 314.54 L 35.81 315.47 C 35.85 318.05 35.73 320.63 35.64 323.21 C 34.09 320.60 35.07 317.37 35.33 314.54 Z" />
<path fill="#fa0202" d=" M 355.96 326.97 C 357.58 323.48 361.34 321.97 364.33 319.91 C 362.91 323.19 363.30 327.38 366.44 329.53 C 370.00 331.46 373.96 332.48 377.62 334.20 C 374.54 338.16 371.83 343.49 366.38 344.40 C 361.16 344.91 356.05 343.15 351.11 341.67 C 351.99 336.56 353.73 331.63 355.96 326.97 Z" />
<path fill="#ffffff" d=" M 430.29 319.73 C 436.62 327.06 443.74 333.69 449.57 341.44 C 457.96 351.42 465.82 361.83 474.21 371.80 C 476.14 374.08 477.25 376.90 478.32 379.65 C 476.50 380.65 474.68 381.65 472.87 382.68 C 472.72 382.27 472.42 381.46 472.26 381.06 C 469.54 373.65 463.68 368.17 458.80 362.18 C 450.73 352.05 441.67 342.69 434.08 332.19 C 434.65 331.17 435.23 330.16 435.81 329.15 C 435.59 329.07 435.15 328.93 434.93 328.85 C 434.82 325.18 431.68 322.89 430.29 319.73 Z" />
<path fill="#fa0202" d=" M 247.43 321.29 C 249.83 322.91 252.57 324.46 253.71 327.29 C 255.72 332.00 257.18 336.93 258.84 341.77 C 253.65 343.48 248.14 345.09 242.63 344.41 C 237.16 343.60 234.72 338.06 231.40 334.34 C 235.59 332.47 240.25 331.60 244.16 329.16 C 246.02 326.94 246.50 323.95 247.43 321.29 Z" />
<path fill="#ffffff" d=" M 140.68 364.67 C 151.80 350.86 162.55 336.73 174.85 323.94 C 174.55 325.49 174.25 327.05 174.04 328.62 C 174.01 328.80 173.97 329.16 173.94 329.34 C 174.29 331.33 174.77 333.44 173.05 334.97 C 164.31 345.57 155.28 355.93 146.53 366.53 C 142.61 370.86 138.82 375.51 136.74 381.05 C 136.59 381.45 136.28 382.27 136.12 382.68 C 134.32 381.65 132.51 380.65 130.69 379.65 C 132.36 373.66 136.97 369.39 140.68 364.67 Z" />
<path fill="#010101" d=" M 57.84 332.07 C 58.96 330.72 60.24 329.52 61.68 328.52 C 76.29 341.57 91.69 353.70 106.61 366.38 C 111.81 371.01 117.86 374.69 122.37 380.08 C 121.58 381.04 120.78 382.00 119.98 382.96 C 119.92 382.88 119.81 382.72 119.75 382.64 C 116.89 378.43 112.89 375.22 109.12 371.87 C 98.73 363.28 88.60 354.40 78.35 345.66 C 72.24 340.47 66.19 334.72 58.37 332.27 C 58.24 332.22 57.97 332.12 57.84 332.07 Z" />
<path fill="#010101" d=" M 173.94 329.34 C 173.97 329.16 174.01 328.80 174.04 328.62 C 175.40 329.74 176.77 330.85 178.16 331.96 C 169.56 342.75 160.26 352.97 152.13 364.13 C 147.65 370.30 143.09 376.64 136.74 381.05 C 138.82 375.51 142.61 370.86 146.53 366.53 C 155.28 355.93 164.31 345.57 173.05 334.97 C 174.77 333.44 174.29 331.33 173.94 329.34 Z" />
<path fill="#010101" d=" M 434.93 328.85 C 435.15 328.93 435.59 329.07 435.81 329.15 C 435.23 330.16 434.65 331.17 434.08 332.19 C 441.67 342.69 450.73 352.05 458.80 362.18 C 463.68 368.17 469.54 373.65 472.26 381.06 C 466.36 376.88 461.88 371.11 457.72 365.28 C 449.34 353.70 439.75 343.09 430.83 331.94 C 432.18 330.89 433.48 329.78 434.93 328.85 Z" />
<path fill="#ffffff" d=" M 45.77 331.27 C 48.31 330.97 50.86 330.69 53.42 330.57 C 50.51 332.21 46.92 332.51 43.76 331.46 C 44.26 331.41 45.27 331.32 45.77 331.27 Z" />
<path fill="#bfc0bf" d=" M 555.52 330.52 C 558.10 330.65 560.69 330.86 563.28 330.67 C 564.57 330.59 565.88 330.50 567.19 330.42 C 563.76 332.63 558.91 332.97 555.52 330.52 Z" />
<path fill="#bfc0bf" d=" M 57.84 332.07 C 57.97 332.12 58.24 332.22 58.37 332.27 C 58.24 332.22 57.97 332.12 57.84 332.07 Z" />
<path fill="#bfc0bf" d=" M 58.37 332.27 C 66.19 334.72 72.24 340.47 78.35 345.66 C 88.60 354.40 98.73 363.28 109.12 371.87 C 112.89 375.22 116.89 378.43 119.75 382.64 C 117.24 381.51 115.02 379.86 112.95 378.07 C 106.48 372.52 99.85 367.15 93.34 361.66 C 85.89 354.73 77.73 348.63 70.16 341.84 C 66.24 338.63 61.80 336.06 58.37 332.27 Z" />
<path fill="#bfc0bf" d=" M 538.28 339.28 C 541.98 336.53 545.68 333.36 550.39 332.63 C 545.91 337.17 540.18 340.17 535.65 344.65 C 523.92 354.23 512.68 364.39 500.92 373.93 C 497.22 376.87 493.94 380.49 489.55 382.44 C 490.26 380.05 492.35 378.64 494.12 377.09 C 502.07 369.68 510.69 363.05 518.79 355.80 C 525.34 350.36 531.62 344.59 538.28 339.28 Z" />
<path fill="#bfc0bf" d=" M 215.89 334.74 C 219.34 338.43 223.11 341.80 227.13 344.86 C 231.48 348.15 235.14 352.29 239.81 355.16 C 242.26 356.66 244.46 358.52 246.25 360.78 C 249.40 364.68 253.85 367.13 257.47 370.53 C 261.67 374.35 266.10 377.90 270.43 381.58 C 272.72 383.58 276.17 384.69 277.00 387.95 C 278.34 391.15 277.94 395.57 281.29 397.56 C 285.32 400.01 285.90 405.14 286.63 409.36 C 288.76 410.02 291.15 409.86 293.15 410.88 C 296.25 413.29 300.00 416.30 299.07 420.74 C 295.61 423.73 291.62 426.03 287.22 427.30 C 284.28 428.00 283.26 431.10 281.85 433.40 C 281.79 432.89 281.68 431.87 281.63 431.36 C 281.51 430.45 281.39 429.55 281.26 428.65 C 271.41 420.56 262.04 411.92 252.29 403.70 C 247.22 399.09 241.56 395.15 236.74 390.27 C 231.39 384.85 224.90 380.81 219.16 375.85 C 216.68 373.65 213.61 371.92 211.91 368.99 C 212.74 367.19 214.13 365.67 214.78 363.79 C 215.81 354.15 213.64 344.23 215.89 334.74 Z" />
<path fill="#bfc0bf" d=" M 374.33 351.33 C 380.42 345.61 387.49 340.99 393.11 334.76 C 395.34 344.24 393.19 354.16 394.21 363.79 C 394.85 365.68 396.25 367.19 397.09 368.99 C 395.39 371.93 392.32 373.66 389.84 375.85 C 385.00 380.05 379.63 383.59 374.82 387.83 C 366.95 395.68 357.96 402.26 349.72 409.71 C 344.73 413.70 340.33 418.36 335.29 422.29 C 332.27 424.93 328.27 426.98 327.08 431.12 C 326.97 431.37 326.76 431.88 326.65 432.14 C 325.26 429.97 323.76 427.53 321.01 427.01 C 316.86 425.84 313.21 423.49 309.93 420.74 C 309.01 416.30 312.74 413.29 315.85 410.88 C 317.84 409.83 320.24 410.02 322.37 409.35 C 323.00 405.67 323.48 401.74 326.06 398.83 C 327.10 397.94 328.28 397.24 329.26 396.27 C 331.56 392.84 330.72 387.88 333.91 384.96 C 339.80 380.94 345.06 376.08 350.49 371.46 C 354.54 367.49 359.67 364.74 363.23 360.24 C 366.18 356.40 370.83 354.56 374.33 351.33 Z" />
<path fill="#ffffff" d=" M 157.26 337.26 C 157.80 337.80 157.80 337.80 157.26 337.26 Z" />
<path fill="#ffffff" d=" M 451.25 337.26 C 451.79 337.79 451.79 337.79 451.25 337.26 Z" />
<path fill="#010101" d=" M 173.71 341.70 C 174.76 340.85 176.03 339.09 177.39 340.50 C 181.48 343.72 185.32 347.38 188.47 351.55 C 189.09 352.69 190.64 354.14 189.58 355.48 C 186.68 359.58 183.83 363.79 180.14 367.23 C 175.34 363.26 170.24 359.52 166.38 354.59 C 165.88 353.73 164.81 352.59 165.66 351.61 C 168.04 348.08 170.76 344.76 173.71 341.70 Z" />
<path fill="#010101" d=" M 421.39 350.38 C 424.81 346.38 428.57 342.62 432.92 339.62 C 437.05 343.45 441.36 347.69 443.69 352.82 C 440.11 358.83 434.07 362.78 428.85 367.24 C 425.05 363.58 421.92 359.26 419.08 354.85 C 419.03 353.10 420.50 351.76 421.39 350.38 Z" />
<path fill="#ffffff" d=" M 245.91 347.08 C 250.53 345.91 255.19 344.94 259.83 343.86 C 263.45 347.34 267.25 350.64 270.74 354.26 C 273.18 356.88 276.41 358.62 278.75 361.35 C 279.35 365.96 278.93 370.63 278.89 375.27 C 277.10 374.35 275.33 373.41 273.62 372.37 C 270.72 370.90 270.21 367.20 267.63 365.39 C 264.58 363.09 260.63 361.89 258.44 358.58 C 255.14 353.87 250.10 350.89 245.91 347.08 Z" />
<path fill="#ffffff" d=" M 344.73 348.72 C 346.50 347.13 347.94 345.02 350.15 344.01 C 354.58 344.56 358.88 345.88 363.21 346.95 C 359.00 350.83 353.90 353.83 350.56 358.58 C 347.62 363.13 341.08 363.64 338.69 368.68 C 337.11 372.22 333.25 373.49 330.11 375.26 C 330.03 370.98 329.59 366.64 330.31 362.40 C 334.53 357.27 340.11 353.47 344.73 348.72 Z" />
<path fill="#ffffff" d=" M 280.17 362.58 C 281.02 363.58 282.12 364.56 281.97 366.02 C 282.17 370.15 282.06 374.29 281.84 378.42 C 280.97 377.41 279.85 376.45 280.02 374.98 C 279.83 370.85 279.95 366.71 280.17 362.58 Z" />
<path fill="#ffffff" d=" M 317.08 374.09 C 320.47 371.42 323.00 367.74 326.81 365.59 C 327.02 369.92 327.37 374.32 326.73 378.63 C 325.07 380.69 322.87 382.19 320.82 383.82 C 318.35 385.98 314.67 386.13 312.62 388.87 C 315.56 392.66 317.80 397.77 322.66 399.39 C 321.01 401.56 319.93 404.09 320.66 406.84 C 315.05 407.81 310.29 411.82 307.78 416.82 C 306.05 419.94 308.85 422.87 311.01 424.86 C 308.65 426.20 306.29 427.54 303.98 428.96 C 301.67 427.86 299.35 426.75 297.03 425.67 C 297.30 425.27 297.83 424.47 298.10 424.07 C 300.06 425.05 302.04 426.00 304.00 426.98 C 304.04 414.30 303.98 401.62 303.98 388.94 C 304.12 387.65 303.77 385.97 305.02 385.11 C 309.12 381.51 312.83 377.51 317.08 374.09 Z" />
<path fill="#010101" d=" M 145.17 376.47 C 150.19 374.75 152.98 369.97 156.92 366.77 C 155.33 369.82 153.45 372.70 151.81 375.73 C 154.38 377.35 157.78 378.15 159.32 380.99 C 154.08 381.60 149.75 378.40 145.17 376.47 Z" />
<path fill="#010101" d=" M 452.09 366.77 C 456.03 369.98 458.81 374.81 463.87 376.46 C 459.27 378.37 454.95 381.58 449.71 381.01 C 450.44 378.77 452.83 378.09 454.74 377.18 C 456.99 376.85 457.55 374.40 455.78 373.05 C 454.32 371.09 453.11 368.97 452.09 366.77 Z" />
<path fill="#010101" d=" M 139.25 371.25 C 139.79 371.79 139.79 371.79 139.25 371.25 Z" />
<path fill="#010101" d=" M 469.25 371.25 C 469.79 371.79 469.79 371.79 469.25 371.25 Z" />
<path fill="#bfc0bf" d=" M 455.78 373.05 C 457.55 374.40 456.99 376.85 454.74 377.18 C 453.84 375.92 454.52 373.82 455.78 373.05 Z" />
<path fill="#010101" d=" M 176.17 376.14 C 177.47 376.80 177.45 377.48 176.13 378.17 C 174.83 377.50 174.85 376.83 176.17 376.14 Z" />
<path fill="#010101" d=" M 432.12 376.42 C 433.50 376.00 433.99 376.49 433.59 377.89 C 432.18 378.31 431.69 377.82 432.12 376.42 Z" />
<path fill="#010101" d=" M 175.48 382.49 C 177.97 380.37 181.63 380.95 184.61 381.42 C 192.87 383.57 201.25 386.50 207.70 392.31 C 211.76 395.59 215.02 399.96 216.14 405.14 C 214.01 403.18 211.96 401.13 210.03 398.97 C 210.66 405.39 208.90 412.48 203.17 416.16 C 198.96 418.37 193.70 419.81 189.09 417.93 C 185.86 416.75 183.03 414.75 180.27 412.75 C 177.23 410.48 173.80 408.56 171.63 405.34 C 168.72 401.28 165.81 396.02 167.93 390.96 C 168.78 386.93 172.59 384.93 175.48 382.49 Z" />
<path fill="#010101" d=" M 263.88 380.76 C 267.13 382.65 270.28 384.98 272.35 388.18 C 271.71 395.55 271.12 402.98 269.68 410.26 C 266.78 409.29 264.57 407.04 262.35 405.04 C 261.06 404.06 261.51 402.29 261.48 400.91 C 260.73 401.53 259.98 402.15 259.23 402.77 C 257.53 400.89 255.10 399.10 255.56 396.24 C 254.45 396.93 253.33 397.61 252.20 398.27 C 252.71 394.81 253.02 391.32 253.24 387.83 C 256.39 389.12 259.47 390.67 262.86 391.24 C 263.13 387.74 263.12 384.20 263.88 380.76 Z" />
<path fill="#010101" d=" M 336.64 388.18 C 338.72 384.98 341.86 382.64 345.12 380.75 C 345.88 384.20 345.85 387.74 346.14 391.24 C 349.54 390.68 352.62 389.10 355.78 387.81 C 355.98 391.31 356.27 394.80 356.73 398.28 C 355.65 397.51 354.59 396.73 353.54 395.94 C 354.29 398.98 351.50 400.75 349.76 402.74 C 348.98 402.24 348.21 401.75 347.45 401.26 C 347.33 402.67 347.66 404.40 346.34 405.37 C 344.16 407.20 342.09 409.36 339.32 410.27 C 337.86 402.99 337.30 395.55 336.64 388.18 Z" />
<path fill="#010101" d=" M 409.64 386.65 C 415.77 384.02 422.16 381.16 428.92 380.99 C 432.50 380.70 434.81 383.72 437.46 385.57 C 440.59 387.90 441.92 392.05 441.79 395.82 C 440.49 402.08 436.50 407.73 431.05 411.08 C 425.55 414.96 419.36 420.30 412.12 418.44 C 405.95 417.65 400.67 412.79 399.34 406.74 C 399.08 404.15 399.06 401.54 398.98 398.95 C 397.56 400.42 396.14 401.88 394.70 403.33 C 394.24 403.78 393.31 404.69 392.85 405.15 C 394.77 396.53 402.29 390.68 409.64 386.65 Z" />
<path fill="#bfc0bf" d=" M 119.75 382.64 C 119.81 382.72 119.92 382.88 119.98 382.96 C 119.92 382.88 119.81 382.72 119.75 382.64 Z" />
<path fill="#ffffff" d=" M 171.20 389.18 C 176.13 385.29 182.64 387.42 187.93 389.30 C 187.93 392.55 188.62 396.05 187.06 399.07 C 184.85 403.39 181.03 408.33 175.53 406.99 C 175.01 405.45 174.57 403.78 173.20 402.78 C 169.40 399.54 168.00 393.26 171.20 389.18 Z" />
<path fill="#ffffff" d=" M 421.07 389.30 C 425.60 387.90 430.50 385.78 435.21 387.77 C 439.47 388.78 440.39 394.36 438.97 397.90 C 438.24 401.65 433.96 403.14 433.46 406.99 C 431.78 406.95 430.04 407.20 428.41 406.72 C 425.11 404.25 422.22 400.89 421.14 396.83 C 420.77 394.33 421.00 391.80 421.07 389.30 Z" />
<path fill="#bfc0bf" d=" M 266.26 388.26 C 266.78 388.78 266.78 388.78 266.26 388.26 Z" />
<path fill="#bfc0bf" d=" M 342.26 388.26 C 342.78 388.77 342.78 388.77 342.26 388.26 Z" />
<path fill="#010101" d=" M 137.49 389.22 C 138.40 388.18 140.33 389.63 139.52 390.79 C 138.60 391.81 136.67 390.36 137.49 389.22 Z" />
<path fill="#010101" d=" M 470.18 388.98 C 473.53 388.27 470.09 393.20 469.29 390.15 C 469.51 389.86 469.95 389.27 470.18 388.98 Z" />
<path fill="#bfc0bf" d=" M 265.26 391.26 C 265.78 391.77 265.78 391.77 265.26 391.26 Z" />
<path fill="#bfc0bf" d=" M 343.26 391.26 C 343.78 391.77 343.78 391.77 343.26 391.26 Z" />
<path fill="#bfc0bf" d=" M 290.26 392.26 C 290.78 392.78 290.78 392.78 290.26 392.26 Z" />
<path fill="#bfc0bf" d=" M 318.26 392.27 C 318.78 392.79 318.78 392.79 318.26 392.27 Z" />
<path fill="#bfc0bf" d=" M 256.14 393.07 C 257.41 393.72 257.38 394.40 256.04 395.10 C 254.76 394.44 254.79 393.76 256.14 393.07 Z" />
<path fill="#bfc0bf" d=" M 262.26 393.26 C 262.78 393.77 262.78 393.77 262.26 393.26 Z" />
<path fill="#bfc0bf" d=" M 346.26 393.26 C 346.78 393.77 346.78 393.77 346.26 393.26 Z" />
<path fill="#bfc0bf" d=" M 352.16 393.34 C 353.55 392.94 354.05 393.44 353.66 394.84 C 352.26 395.22 351.76 394.72 352.16 393.34 Z" />
<path fill="#bfc0bf" d=" M 259.14 394.07 C 260.41 394.72 260.38 395.40 259.05 396.10 C 257.76 395.44 257.79 394.76 259.14 394.07 Z" />
<path fill="#bfc0bf" d=" M 265.27 394.26 C 265.78 394.78 265.78 394.78 265.27 394.26 Z" />
<path fill="#bfc0bf" d=" M 343.26 394.26 C 343.78 394.78 343.78 394.78 343.26 394.26 Z" />
<path fill="#bfc0bf" d=" M 349.34 394.16 C 350.73 393.77 351.23 394.27 350.84 395.67 C 349.44 396.06 348.94 395.56 349.34 394.16 Z" />
<path fill="#bfc0bf" d=" M 268.26 395.26 C 268.78 395.78 268.78 395.78 268.26 395.26 Z" />
<path fill="#bfc0bf" d=" M 340.27 395.26 C 340.79 395.78 340.79 395.78 340.27 395.26 Z" />
<path fill="#bfc0bf" d=" M 261.12 396.52 C 262.54 396.67 262.79 397.32 261.87 398.49 C 260.45 398.33 260.20 397.68 261.12 396.52 Z" />
<path fill="#bfc0bf" d=" M 265.13 396.07 C 266.41 396.72 266.38 397.39 265.05 398.10 C 263.76 397.44 263.79 396.77 265.13 396.07 Z" />
<path fill="#bfc0bf" d=" M 343.16 396.34 C 344.55 395.94 345.05 396.43 344.66 397.84 C 343.27 398.23 342.76 397.73 343.16 396.34 Z" />
<path fill="#bfc0bf" d=" M 347.13 396.51 C 348.54 396.66 348.79 397.32 347.87 398.48 C 346.45 398.33 346.20 397.67 347.13 396.51 Z" />
<path fill="#bfc0bf" d=" M 258.26 397.27 C 258.78 397.79 258.78 397.79 258.26 397.27 Z" />
<path fill="#bfc0bf" d=" M 268.26 397.26 C 268.78 397.78 268.78 397.78 268.26 397.26 Z" />
<path fill="#bfc0bf" d=" M 340.27 397.26 C 340.79 397.78 340.79 397.78 340.27 397.26 Z" />
<path fill="#bfc0bf" d=" M 350.26 397.26 C 350.77 397.78 350.77 397.78 350.26 397.26 Z" />
<path fill="#bfc0bf" d=" M 264.09 399.28 C 267.41 399.42 262.55 402.26 264.09 399.28 Z" />
<path fill="#bfc0bf" d=" M 344.09 399.28 C 347.41 399.44 342.54 402.26 344.09 399.28 Z" />
<path fill="#bfc0bf" d=" M 394.70 403.33 C 396.14 401.88 397.56 400.42 398.98 398.95 C 399.06 401.54 399.08 404.15 399.34 406.74 C 398.69 405.67 398.04 404.61 397.46 403.52 C 396.53 403.46 395.61 403.39 394.70 403.33 Z" />
<path fill="#bfc0bf" d=" M 267.26 400.26 C 267.78 400.78 267.78 400.78 267.26 400.26 Z" />
<path fill="#bfc0bf" d=" M 341.27 400.26 C 341.79 400.78 341.79 400.78 341.27 400.26 Z" />
<path fill="#bfc0bf" d=" M 264.26 402.26 C 264.78 402.78 264.78 402.78 264.26 402.26 Z" />
<path fill="#bfc0bf" d=" M 344.26 402.26 C 344.78 402.77 344.78 402.77 344.26 402.26 Z" />
<path fill="#010101" d=" M 237.13 412.39 C 238.52 411.97 239.02 412.46 238.63 413.87 C 237.24 414.27 236.74 413.77 237.13 412.39 Z" />
<path fill="#010101" d=" M 287.36 412.20 C 289.38 411.80 291.58 411.70 293.55 412.41 C 295.69 414.06 297.21 417.68 294.84 419.81 C 293.46 421.79 290.83 422.76 288.64 421.43 C 284.99 420.12 283.28 414.10 287.36 412.20 Z" />
<path fill="#010101" d=" M 316.20 412.16 C 318.91 411.64 322.38 411.52 323.84 414.38 C 325.10 418.55 320.60 423.23 316.42 421.75 C 314.59 420.51 312.39 418.61 313.03 416.13 C 313.58 414.56 314.43 412.61 316.20 412.16 Z" />
<path fill="#010101" d=" M 371.17 412.12 C 372.44 412.78 372.41 413.45 371.08 414.15 C 369.80 413.48 369.82 412.80 371.17 412.12 Z" />
<path fill="#010101" d=" M 241.34 415.34 C 241.86 415.86 241.86 415.86 241.34 415.34 Z" />
<path fill="#ffffff" d=" M 286.79 414.65 C 289.18 415.08 290.48 416.83 290.15 419.26 C 287.60 419.27 287.49 416.45 286.79 414.65 Z" />
<path fill="#ffffff" d=" M 318.85 419.26 C 318.50 416.82 319.82 415.09 322.22 414.65 C 321.51 416.45 321.40 419.27 318.85 419.26 Z" />
<path fill="#010101" d=" M 353.74 426.93 C 357.88 422.26 362.91 418.38 368.25 415.18 C 364.05 419.79 359.40 424.18 353.74 426.93 Z" />
<path fill="#010101" d=" M 242.80 416.65 C 247.45 419.39 251.80 422.79 255.05 427.14 C 250.40 424.40 245.94 421.10 242.80 416.65 Z" />
<path fill="#ffffff" d=" M 304.05 431.19 C 307.05 429.35 310.17 426.89 313.78 426.68 C 317.17 428.11 321.27 428.61 323.91 431.34 C 324.60 434.56 322.28 437.29 320.87 439.96 C 315.25 440.06 309.63 440.06 304.01 439.95 C 303.96 437.03 303.97 434.11 304.05 431.19 Z" />
<path fill="#bfc0bf" d=" M 211.26 431.26 C 211.78 431.78 211.78 431.78 211.26 431.26 Z" />
<path fill="#bfc0bf" d=" M 397.26 431.26 C 397.78 431.77 397.78 431.77 397.26 431.26 Z" />
<path fill="#bfc0bf" d=" M 215.32 434.29 C 216.61 432.66 219.24 435.04 217.26 436.22 C 215.85 437.77 213.69 435.68 215.32 434.29 Z" />
<path fill="#bfc0bf" d=" M 391.37 434.21 C 392.48 433.10 394.53 434.33 394.22 435.83 C 393.70 437.99 389.87 435.81 391.37 434.21 Z" />
<path fill="#bfc0bf" d=" M 217.02 436.79 C 217.70 438.18 218.12 439.66 218.60 441.14 C 220.44 440.76 222.14 439.89 224.00 439.58 C 225.36 440.45 226.24 441.85 227.31 443.03 C 225.79 443.22 224.26 443.34 222.74 443.47 C 224.16 445.24 225.61 446.99 227.07 448.73 C 228.20 448.14 229.33 447.56 230.47 446.98 C 232.17 452.06 233.72 457.23 233.43 462.67 C 231.26 460.59 231.51 457.40 230.74 454.73 C 228.91 456.62 229.90 459.15 230.36 461.37 C 228.60 462.62 226.56 463.97 226.08 466.23 C 225.53 468.65 226.65 471.11 228.22 472.90 C 230.60 473.76 230.58 470.34 231.59 468.98 C 232.85 470.31 234.11 471.65 235.35 473.01 C 233.44 473.72 231.42 474.05 229.40 474.19 C 229.44 474.75 229.51 475.86 229.55 476.42 C 227.43 474.17 224.87 472.26 223.24 469.61 C 222.41 466.47 224.17 463.37 224.92 460.37 C 224.22 460.21 222.83 459.87 222.14 459.71 C 222.43 458.93 222.72 458.15 223.01 457.38 C 224.64 458.01 226.27 458.62 227.93 459.18 C 227.95 457.87 227.96 456.56 227.98 455.26 C 226.74 454.65 225.50 454.05 224.25 453.48 C 224.08 451.29 223.93 449.10 223.76 446.92 C 221.73 447.21 219.71 447.55 217.69 447.85 C 219.06 446.76 220.46 445.72 221.87 444.68 C 221.63 444.25 221.16 443.37 220.92 442.94 C 218.61 444.78 216.83 447.14 215.88 449.96 C 217.38 449.66 218.88 449.36 220.40 449.11 C 220.20 449.46 219.80 450.17 219.60 450.52 C 215.08 451.43 210.60 452.67 206.01 453.19 C 205.99 451.09 206.00 449.00 206.02 446.91 C 207.22 446.97 208.42 447.04 209.62 447.12 C 210.56 448.37 211.51 449.63 212.46 450.89 C 213.43 449.05 214.53 447.28 215.48 445.44 C 216.99 442.76 215.44 439.46 217.02 436.79 Z" />
<path fill="#ffffff" d=" M 248.77 439.77 C 252.10 436.97 256.70 437.42 260.63 438.37 C 266.15 439.71 269.93 445.45 275.98 445.11 C 277.88 444.87 280.64 445.79 281.72 443.69 C 282.64 441.83 282.98 439.75 283.51 437.76 C 284.47 439.46 285.34 441.21 286.24 442.95 C 298.41 443.03 310.59 443.03 322.76 442.96 C 323.66 441.22 324.53 439.47 325.48 437.76 C 326.23 440.14 326.32 443.01 328.26 444.83 C 331.02 445.20 333.91 445.32 336.62 444.63 C 341.61 442.75 345.37 438.09 351.00 437.88 C 355.90 436.64 361.08 439.15 363.60 443.42 C 365.50 448.40 365.09 453.81 364.95 459.03 C 354.26 457.27 343.38 456.59 332.80 454.16 C 327.36 452.87 324.83 447.24 320.72 444.17 C 312.17 443.68 303.57 444.19 295.01 443.96 C 292.55 444.10 289.93 443.58 287.60 444.47 C 284.12 447.99 281.28 452.81 276.19 454.16 C 265.62 456.59 254.74 457.25 244.05 459.02 C 244.10 452.54 242.60 444.05 248.77 439.77 Z" />
<path fill="#bfc0bf" d=" M 390.39 441.15 C 390.87 439.68 391.35 438.21 391.97 436.80 C 393.25 439.06 392.47 441.72 392.99 444.15 C 393.85 446.54 395.39 448.61 396.55 450.86 C 397.51 449.62 398.45 448.37 399.39 447.12 C 400.58 447.05 401.78 446.98 402.98 446.92 C 402.99 449.01 402.99 451.10 402.98 453.19 C 398.38 452.70 393.92 451.44 389.40 450.53 C 389.20 450.18 388.80 449.47 388.60 449.11 C 390.11 449.36 391.62 449.66 393.13 449.95 C 392.17 447.13 390.38 444.78 388.05 442.95 C 387.84 443.38 387.40 444.25 387.19 444.69 C 388.57 445.72 389.94 446.77 391.30 447.86 C 389.27 447.55 387.25 447.20 385.23 446.91 C 385.06 449.10 384.92 451.29 384.76 453.48 C 383.50 454.05 382.25 454.64 381.01 455.26 C 381.02 456.57 381.04 457.88 381.05 459.20 C 382.71 458.63 384.36 458.01 386.00 457.37 C 386.28 458.14 386.57 458.92 386.87 459.71 C 386.17 459.87 384.78 460.20 384.08 460.37 C 384.83 463.37 386.58 466.47 385.76 469.61 C 384.13 472.27 381.56 474.16 379.44 476.41 C 379.48 475.86 379.55 474.75 379.59 474.20 C 377.57 473.99 375.55 473.70 373.65 473.02 C 374.89 471.66 376.15 470.31 377.42 468.98 C 378.01 470.34 378.57 471.72 379.30 473.03 C 381.60 473.32 382.36 470.51 382.95 468.80 C 383.80 465.52 381.18 462.94 378.66 461.37 C 379.08 459.17 380.11 456.60 378.24 454.76 C 377.50 457.43 377.73 460.60 375.57 462.66 C 375.27 457.23 376.85 452.07 378.53 446.99 C 379.66 447.57 380.79 448.15 381.93 448.74 C 383.39 446.99 384.84 445.25 386.26 443.48 C 384.74 443.34 383.22 443.21 381.71 443.04 C 382.77 441.80 383.83 440.58 384.91 439.37 C 386.68 440.09 388.51 440.72 390.39 441.15 Z" />
<path fill="#ffffff" d=" M 270.83 441.48 C 274.04 441.97 277.29 441.91 280.53 441.91 C 277.63 444.04 273.80 442.83 270.83 441.48 Z" />
<path fill="#010101" d=" M 227.04 450.32 C 228.21 450.07 229.46 451.04 229.66 452.19 C 229.02 454.15 224.73 451.48 227.04 450.32 Z" />
<path fill="#010101" d=" M 381.25 450.28 C 383.74 450.11 382.16 453.04 380.44 452.69 C 378.03 453.03 379.76 450.07 381.25 450.28 Z" />
<path fill="#bfc0bf" d=" M 220.09 454.28 C 223.42 454.44 218.55 457.26 220.09 454.28 Z" />
<path fill="#bfc0bf" d=" M 388.09 454.27 C 391.41 454.44 386.53 457.25 388.09 454.27 Z" />
<path fill="#bfc0bf" d=" M 209.66 458.03 C 210.96 454.19 216.21 455.20 219.42 455.05 C 216.93 457.73 212.98 457.43 209.66 458.03 Z" />
<path fill="#bfc0bf" d=" M 389.58 455.05 C 392.76 455.20 398.05 454.17 399.31 458.01 C 396.00 457.43 392.05 457.74 389.58 455.05 Z" />
<path fill="#bfc0bf" d=" M 199.74 456.94 C 202.45 455.74 205.43 455.84 208.32 456.00 C 207.68 459.14 203.62 458.26 201.24 459.06 C 200.86 458.53 200.12 457.47 199.74 456.94 Z" />
<path fill="#bfc0bf" d=" M 400.69 456.00 C 403.50 456.07 406.69 455.31 409.14 457.10 C 407.87 460.39 403.79 458.27 401.38 457.67 C 401.21 457.25 400.86 456.42 400.69 456.00 Z" />
<path fill="#bfc0bf" d=" M 219.24 459.49 C 220.77 458.88 222.57 461.35 221.63 462.69 C 220.04 463.48 218.41 460.79 219.24 459.49 Z" />
<path fill="#bfc0bf" d=" M 389.29 459.32 C 391.15 459.98 388.99 463.67 387.37 462.69 C 386.49 461.37 387.93 459.56 389.29 459.32 Z" />
<path fill="#bfc0bf" d=" M 214.25 460.04 C 217.64 459.38 213.96 464.23 213.29 461.15 C 213.53 460.87 214.01 460.32 214.25 460.04 Z" />
<path fill="#010101" d=" M 226.28 460.09 C 229.27 458.55 226.42 463.41 226.28 460.09 Z" />
<path fill="#010101" d=" M 381.28 460.09 C 384.25 458.53 381.44 463.41 381.28 460.09 Z" />
<path fill="#bfc0bf" d=" M 393.41 460.29 C 394.29 459.30 396.30 460.60 395.55 461.79 C 394.66 462.83 392.66 461.47 393.41 460.29 Z" />
<path fill="#bfc0bf" d=" M 212.65 464.05 C 213.43 464.05 214.99 464.06 215.78 464.06 C 216.60 465.12 217.41 466.19 218.21 467.28 C 216.12 466.65 214.11 465.71 212.65 464.05 Z" />
<path fill="#bfc0bf" d=" M 220.19 464.26 C 221.84 464.27 221.57 467.02 220.03 467.00 C 218.34 466.97 218.65 464.26 220.19 464.26 Z" />
<path fill="#bfc0bf" d=" M 388.11 464.50 C 389.42 463.51 390.91 465.80 389.69 466.75 C 388.34 467.77 386.89 465.45 388.11 464.50 Z" />
<path fill="#bfc0bf" d=" M 390.72 467.23 C 391.99 465.20 393.77 463.55 396.34 463.90 C 394.97 465.73 392.87 466.65 390.72 467.23 Z" />
<path fill="#bfc0bf" d=" M 229.21 465.46 C 230.38 464.69 231.70 466.69 230.71 467.58 C 229.53 468.33 228.16 466.34 229.21 465.46 Z" />
<path fill="#bfc0bf" d=" M 379.16 465.29 C 380.74 465.27 380.22 467.72 378.91 467.75 C 377.34 467.77 377.89 465.33 379.16 465.29 Z" />
<path fill="#bfc0bf" d=" M 215.41 468.12 C 216.81 467.69 217.30 468.18 216.88 469.59 C 215.48 470.00 214.99 469.51 215.41 468.12 Z" />
<path fill="#bfc0bf" d=" M 392.15 468.15 C 393.55 467.67 394.02 468.14 393.54 469.55 C 392.13 470.03 391.67 469.56 392.15 468.15 Z" />
<path fill="#bfc0bf" d=" M 224.28 474.09 C 227.27 472.54 224.44 477.41 224.28 474.09 Z" />
<path fill="#bfc0bf" d=" M 383.28 474.09 C 386.27 472.56 383.41 477.41 383.28 474.09 Z" />
<path fill="#bfc0bf" d=" M 233.33 475.02 C 235.39 474.20 235.25 477.43 233.53 477.63 C 231.44 478.45 231.69 475.28 233.33 475.02 Z" />
<path fill="#bfc0bf" d=" M 374.34 475.20 C 375.58 474.15 377.70 476.16 376.79 477.48 C 375.54 478.43 373.35 476.53 374.34 475.20 Z" />
<path fill="#010101" d=" M 291.87 475.82 C 296.83 479.53 301.15 483.94 304.63 489.08 C 307.72 483.72 312.31 479.59 317.12 475.80 C 315.61 483.79 313.72 491.82 313.97 500.00 C 314.11 506.60 313.42 513.33 315.22 519.78 C 316.58 526.50 320.88 532.25 321.89 539.07 C 322.37 547.53 322.45 556.57 318.21 564.20 C 317.06 566.59 314.18 565.90 312.03 566.06 C 305.73 565.90 299.42 566.23 293.13 565.91 C 291.77 565.96 291.04 564.54 290.41 563.57 C 286.60 556.01 286.63 547.31 287.12 539.07 C 288.07 532.49 292.21 526.93 293.46 520.42 C 295.84 513.16 294.80 505.47 295.03 497.99 C 295.22 490.45 292.71 483.24 291.87 475.82 Z" />
<path fill="#bfc0bf" d=" M 230.27 477.26 C 230.79 477.78 230.79 477.78 230.27 477.26 Z" />
<path fill="#bfc0bf" d=" M 378.26 477.26 C 378.78 477.77 378.78 477.77 378.26 477.26 Z" />
<path fill="#bfc0bf" d=" M 198.70 483.00 C 199.71 480.66 200.83 477.72 203.85 477.72 C 204.29 479.44 204.77 481.16 205.19 482.89 C 203.07 483.56 200.80 483.98 198.70 483.00 Z" />
<path fill="#bfc0bf" d=" M 405.16 477.72 C 408.16 477.74 409.28 480.66 410.31 482.99 C 408.20 483.98 405.92 483.57 403.80 482.87 C 404.23 481.14 404.71 479.44 405.16 477.72 Z" />
<path fill="#bfc0bf" d=" M 234.08 479.25 C 235.65 479.22 235.10 481.66 233.84 481.72 C 232.25 481.73 232.77 479.27 234.08 479.25 Z" />
<path fill="#bfc0bf" d=" M 374.29 479.43 C 375.46 478.66 376.83 480.66 375.80 481.55 C 374.61 482.31 373.30 480.30 374.29 479.43 Z" />
<path fill="#bfc0bf" d=" M 227.42 480.16 C 230.06 479.73 227.13 484.47 225.56 483.76 C 224.98 482.37 226.25 480.81 227.42 480.16 Z" />
<path fill="#bfc0bf" d=" M 380.60 480.18 C 382.29 479.68 384.05 482.24 383.45 483.77 C 381.87 484.05 380.24 481.61 380.60 480.18 Z" />
<path fill="#bfc0bf" d=" M 209.33 481.34 C 211.52 482.63 206.69 484.47 206.57 482.36 C 207.25 481.46 208.17 481.12 209.33 481.34 Z" />
<path fill="#bfc0bf" d=" M 399.15 481.67 C 400.10 480.88 401.82 481.32 402.43 482.36 C 402.26 484.05 398.60 483.31 399.15 481.67 Z" />
<path fill="#bfc0bf" d=" M 230.09 484.28 C 233.41 484.43 228.54 487.26 230.09 484.28 Z" />
<path fill="#bfc0bf" d=" M 378.09 484.28 C 381.41 484.43 376.55 487.27 378.09 484.28 Z" />
<path fill="#bfc0bf" d=" M 204.75 486.94 C 209.51 485.61 214.51 485.66 219.38 485.04 C 215.90 488.50 210.48 487.68 206.02 488.64 C 205.70 488.21 205.07 487.36 204.75 486.94 Z" />
<path fill="#bfc0bf" d=" M 389.61 485.04 C 394.49 485.66 399.50 485.56 404.26 486.94 C 403.94 487.37 403.30 488.22 402.98 488.64 C 398.52 487.68 393.10 488.50 389.61 485.04 Z" />
<path fill="#bfc0bf" d=" M 195.63 486.08 C 197.88 485.98 200.14 485.97 202.39 486.06 C 201.91 487.71 200.35 488.43 198.99 489.26 C 197.65 488.44 196.10 487.72 195.63 486.08 Z" />
<path fill="#bfc0bf" d=" M 406.61 486.07 C 408.87 485.98 411.13 485.98 413.39 486.07 C 412.90 487.72 411.35 488.43 410.00 489.26 C 408.65 488.43 407.09 487.72 406.61 486.07 Z" />
<path fill="#bfc0bf" d=" M 226.26 489.26 C 226.78 489.78 226.78 489.78 226.26 489.26 Z" />
<path fill="#bfc0bf" d=" M 382.26 489.26 C 382.78 489.77 382.78 489.77 382.26 489.26 Z" />
<path fill="#bfc0bf" d=" M 191.81 503.89 C 191.93 502.03 191.89 498.17 194.77 499.11 C 196.42 500.23 195.27 502.30 195.28 503.90 C 197.32 503.97 199.36 504.06 201.40 504.22 C 198.95 507.64 194.74 505.19 191.81 503.89 Z" />
<path fill="#bfc0bf" d=" M 414.23 499.09 C 417.10 498.20 417.08 502.01 417.19 503.88 C 414.26 505.20 410.04 507.65 407.60 504.21 C 409.63 504.05 411.68 503.97 413.73 503.91 C 413.73 502.30 412.55 500.21 414.23 499.09 Z" />
<path fill="#bfc0bf" d=" M 225.27 500.26 C 225.79 500.78 225.79 500.78 225.27 500.26 Z" />
<path fill="#bfc0bf" d=" M 230.28 500.09 C 233.26 498.54 230.44 503.41 230.28 500.09 Z" />
<path fill="#bfc0bf" d=" M 377.28 500.09 C 380.26 498.54 377.44 503.41 377.28 500.09 Z" />
<path fill="#bfc0bf" d=" M 383.26 500.26 C 383.78 500.78 383.78 500.78 383.26 500.26 Z" />
<path fill="#010101" d=" M 171.17 508.17 C 172.80 507.64 173.35 508.19 172.83 509.83 C 171.20 510.34 170.65 509.79 171.17 508.17 Z" />
<path fill="#010101" d=" M 436.16 508.17 C 437.78 507.64 438.34 508.19 437.83 509.83 C 436.19 510.34 435.64 509.79 436.16 508.17 Z" />
<path fill="#010101" d=" M 171.17 515.17 C 172.79 514.64 173.35 515.20 172.83 516.83 C 171.20 517.35 170.65 516.79 171.17 515.17 Z" />
<path fill="#010101" d=" M 436.17 515.17 C 437.79 514.64 438.34 515.19 437.83 516.83 C 436.20 517.34 435.64 516.79 436.17 515.17 Z" />
<path fill="#bfc0bf" d=" M 235.26 521.27 C 235.78 521.78 235.78 521.78 235.26 521.27 Z" />
<path fill="#bfc0bf" d=" M 373.26 521.26 C 373.78 521.78 373.78 521.78 373.26 521.26 Z" />
<path fill="#bfc0bf" d=" M 189.27 526.26 C 189.78 526.78 189.78 526.78 189.27 526.26 Z" />
<path fill="#bfc0bf" d=" M 419.26 526.26 C 419.78 526.77 419.78 526.77 419.26 526.26 Z" />
<path fill="#010101" d=" M 208.17 529.17 C 209.80 528.64 210.35 529.19 209.84 530.83 C 208.20 531.34 207.65 530.79 208.17 529.17 Z" />
<path fill="#010101" d=" M 399.17 529.17 C 400.79 528.64 401.34 529.19 400.83 530.83 C 399.20 531.35 398.64 530.79 399.17 529.17 Z" />
<path fill="#010101" d=" M 287.57 575.31 C 285.87 571.89 290.48 569.39 292.43 567.14 C 295.99 566.68 299.49 567.79 303.04 567.90 C 307.61 568.15 312.09 566.52 316.66 567.10 C 319.14 569.25 320.84 572.15 322.48 574.96 C 317.78 576.14 312.98 576.89 308.26 578.00 L 300.77 578.00 C 296.39 576.97 291.87 576.60 287.57 575.31 Z" />
</svg>
